<svg width="149" height="15" viewBox="0 0 149 15" fill="none" xmlns="http://www.w3.org/2000/svg">
<path d="M74.193 13.889H69.073V0.201H74.193V13.889ZM69.573 13.389H73.693V0.701H69.573V13.389ZM81.317 13.889H76.3V0.201H86.782C88.2836 0.0794002 89.779 0.50097 90.996 1.389C91.5199 1.86831 91.926 2.46219 92.1825 3.12429C92.4391 3.7864 92.5392 4.49883 92.475 5.206C92.5498 6.42797 92.1609 7.6332 91.386 8.581C90.469 9.633 88.943 10.175 86.851 10.194C86.324 10.208 82.375 10.194 81.32 10.194L81.317 13.889ZM76.797 13.389H80.817V9.689H81.068C81.119 9.689 86.246 9.705 86.839 9.689C88.788 9.672 90.189 9.189 91.008 8.246C91.6978 7.38845 92.0404 6.30315 91.968 5.205C92.0295 4.57137 91.9442 3.93209 91.7188 3.33674C91.4933 2.74139 91.1338 2.20597 90.668 1.772C89.5396 0.9621 88.159 0.58193 86.775 0.7H76.8L76.797 13.389ZM85.72 7.119H80.783V3.393H85.753C86.1053 3.34432 86.4642 3.38544 86.7963 3.51253C87.1285 3.63963 87.4232 3.84858 87.653 4.12C87.8615 4.46694 87.9598 4.86898 87.935 5.273C87.9537 5.6481 87.8727 6.02147 87.7 6.355C87.4629 6.64088 87.1562 6.86095 86.8094 6.99405C86.4627 7.12715 86.0875 7.1688 85.72 7.115V7.119ZM81.283 6.619H85.72C86.54 6.619 87.048 6.448 87.273 6.096C87.3969 5.84015 87.453 5.55676 87.436 5.273C87.4579 4.97506 87.3933 4.67714 87.25 4.415L87.244 4.406C87.006 4.056 86.533 3.893 85.753 3.893H81.283V6.619ZM101.6 14.091C97.11 14.091 94.43 12.976 93.409 10.683C93.2419 10.2401 93.1285 9.7788 93.071 9.309L93.027 9.021H98.369L98.404 9.231C98.4451 9.4442 98.536 9.6449 98.668 9.817C98.879 10.072 99.583 10.5 101.919 10.5C104.727 10.5 104.727 10.007 104.727 9.742C104.727 9.295 104.402 9.142 102.112 8.898L101.677 8.857C100.815 8.776 99.725 8.673 99.227 8.63C95.027 8.25 93.152 6.945 93.152 4.4C93.152 1.727 96.343 0 101.282 0C105.311 0 107.907 1.062 108.996 3.159C109.254 3.64678 109.428 4.17499 109.509 4.721L109.544 5.002H104.196L104.174 4.776C104.153 4.59938 104.078 4.43369 103.958 4.302C103.758 4.034 103.126 3.591 101.164 3.591C98.755 3.591 98.423 3.899 98.423 4.231C98.423 4.674 99.184 4.831 101.623 5.092C102.64 5.175 104.275 5.343 104.835 5.411C108.356 5.793 109.927 7.066 109.927 9.54C109.928 11.615 108.483 14.091 101.6 14.091ZM93.611 9.521C93.6611 9.8508 93.7473 10.174 93.868 10.485C94.798 12.574 97.328 13.591 101.6 13.591C105.172 13.591 109.431 12.891 109.431 9.54C109.431 7.347 108.041 6.261 104.782 5.908C104.222 5.84 102.597 5.673 101.582 5.589C98.982 5.307 97.925 5.157 97.925 4.231C97.925 3.273 99.064 3.091 101.166 3.091C102.827 3.091 103.9 3.391 104.355 3.996C104.479 4.14505 104.573 4.31695 104.631 4.502H108.965C108.878 4.11525 108.74 3.74169 108.555 3.391C107.555 1.472 105.112 0.5 101.284 0.5C96.649 0.5 93.654 2.031 93.654 4.4C93.654 6.66 95.335 7.776 99.273 8.132C99.773 8.175 100.862 8.278 101.726 8.36L102.164 8.401C104.291 8.625 105.229 8.765 105.229 9.742C105.229 10.794 104.016 11 101.921 11C99.983 11 98.759 10.709 98.286 10.136C98.1402 9.9533 98.0302 9.7446 97.962 9.521H93.611ZM119.427 14.074C114.207 14.074 111.327 11.963 111.327 8.129V0.201H116.379V8.129C116.379 9.444 117.556 10.198 119.607 10.198C121.567 10.198 122.784 9.411 122.784 8.146V0.201H127.784V8.549C127.789 12.06 124.74 14.074 119.424 14.074H119.427ZM111.827 0.701V8.129C111.827 12.867 116.585 13.574 119.427 13.574C122.365 13.574 127.292 12.921 127.292 8.549V0.701H123.292V8.146C123.292 9.696 121.848 10.698 119.615 10.698C117.281 10.698 115.887 9.738 115.887 8.129V0.701H111.827ZM148.972 13.889H144.204V7.709L141.5 13.889H137.341L134.665 7.721V13.889H129.88V0.201H136.174L139.444 7.748L142.872 0.201H148.978L148.972 13.889ZM144.704 13.389H148.472V0.701H143.19L139.428 8.98L135.842 0.701H130.376V13.389H134.161V5.315L137.661 13.392H141.161L144.698 5.327L144.704 13.389ZM4.554 0.451H0V13.639H12.584V10.128H4.554V0.451ZM21.776 0.151C15.963 0.151 12.906 2.906 12.906 6.951C12.906 11.521 16.115 13.839 21.776 13.839C28.008 13.839 30.629 11.151 30.629 6.951C30.629 2.686 27.672 0.149 21.776 0.149V0.151ZM21.759 3.578C22.1547 3.57614 22.5502 3.59918 22.943 3.647L17.852 8.738C17.6111 8.1931 17.4936 7.6016 17.508 7.006C17.508 4.937 18.55 3.576 21.759 3.576V3.578ZM21.776 10.466C21.3947 10.4677 21.0137 10.4463 20.635 10.402L25.735 5.302C25.9669 5.8379 26.0779 6.41833 26.06 7.002C26.06 9.015 25.1 10.464 21.776 10.464V10.466ZM39.652 8.666H44.339C44.27 8.9913 44.1262 9.296 43.919 9.556C42.9473 10.3476 41.7072 10.7328 40.458 10.631C39.8292 10.6983 39.1934 10.6296 38.5935 10.4296C37.9936 10.2297 37.4436 9.9031 36.981 9.472C36.5071 8.7769 36.282 7.9421 36.342 7.103C36.2653 6.22374 36.5101 5.34652 37.031 4.634C37.686 3.894 38.795 3.575 40.425 3.575C41.4621 3.48913 42.4979 3.75548 43.365 4.331C43.6383 4.54808 43.8426 4.83991 43.953 5.171H48.3C48.2684 4.62547 48.1372 4.09033 47.913 3.592C46.872 1.475 44.452 0.215 40.337 0.215C36.758 0.215 34.356 1.307 33.029 2.954C32.1526 4.14336 31.7027 5.59344 31.752 7.07C31.6953 8.58 32.1336 10.0671 33 11.305C34.311 13.005 36.646 13.841 39.452 13.841C41.3175 13.9711 43.1703 13.4486 44.693 12.363L44.811 13.639H48.422V5.827H39.652V8.666ZM58.671 0.148C52.859 0.148 49.801 2.903 49.801 6.948C49.801 11.518 53.009 13.836 58.671 13.836C64.904 13.836 67.525 11.148 67.525 6.948C67.525 2.686 64.568 0.149 58.671 0.149V0.148ZM58.655 3.575C59.0403 3.57386 59.4253 3.5959 59.808 3.641L54.737 8.715C54.5036 8.1761 54.39 7.5931 54.404 7.006C54.4 4.937 55.446 3.576 58.655 3.576V3.575ZM58.671 10.463C58.2796 10.4647 57.8885 10.4419 57.5 10.395L62.617 5.277C62.8577 5.82003 62.9729 6.41032 62.954 7.004C62.956 9.015 62 10.464 58.671 10.464V10.463Z" fill="#DAC5A7"/>
</svg>
